<svg width="46" height="47" viewBox="0 0 46 47" fill="none" xmlns="http://www.w3.org/2000/svg">
<path d="M9.49 13H14.35V34H9.49V13ZM32.7138 34L28.6638 28.15H28.4238H24.1938V34H19.3338V13H28.4238C30.2838 13 31.8938 13.31 33.2538 13.93C34.6338 14.55 35.6938 15.43 36.4338 16.57C37.1738 17.71 37.5438 19.06 37.5438 20.62C37.5438 22.18 37.1638 23.53 36.4038 24.67C35.6638 25.79 34.6038 26.65 33.2238 27.25L37.9338 34H32.7138ZM32.6238 20.62C32.6238 19.44 32.2438 18.54 31.4838 17.92C30.7238 17.28 29.6138 16.96 28.1538 16.96H24.1938V24.28H28.1538C29.6138 24.28 30.7238 23.96 31.4838 23.32C32.2438 22.68 32.6238 21.78 32.6238 20.62Z" fill="#474747"/>
<rect x="1.5" y="1.5" width="43" height="44" stroke="#474747" stroke-width="3"/>
</svg>
